<?xml version="1.0" encoding="utf-8"?>
<svg viewBox="0 0 500 500" xmlns="http://www.w3.org/2000/svg">
  <g style="" transform="matrix(0.770772, 0, 0, 0.770772, 0.000501, 0.000099)">
    <g>
      <g xmlns="http://www.w3.org/2000/svg">
        <path style="fill:#010002;" d="M528.712,204.382c0,112.836-204.353,444.318-204.353,444.318     S119.987,317.218,119.987,204.382C119.987,91.517,211.495,0,324.36,0C437.205-0.01,528.712,91.517,528.712,204.382z      M482.48,204.392c0-87.199-70.951-158.159-158.12-158.159c-87.199,0-158.13,70.951-158.13,158.159     c0,87.16,70.931,158.091,158.13,158.091C411.539,362.493,482.48,291.551,482.48,204.392z"/>
        <rect x="209.042" y="187.029" style="fill:#010002;" width="238.265" height="19.501"/>
        <path style="fill:#010002;" d="M 343.968 92.944 C 341.105 92.739 324.467 92.612 321.555 92.612 C 270.819 92.612 231.914 129.954 212.285 178.238 L 443.476 177.574 C 425.5 130.442 392.046 96.618 343.968 92.944 Z"/>
        <polygon style="fill:#010002;" points="218.598,231.68 219.555,231.621 217.845,231.621     "/>
        <path style="fill:#010002;" d="M 212.638 240.248 C 212.638 240.248 208.134 266.471 219.829 266.471 L 437.137 266.471 C 446.702 266.471 444.308 240.248 444.308 240.248 L 212.638 240.248 Z"/>
        <rect x="208.487" y="213.695" style="fill:#010002;" width="238.265" height="19.501"/>
      </g>
    </g>
  </g>
</svg>