<?xml version="1.0" encoding="utf-8"?>
<svg viewBox="0 0 500 500" xmlns="http://www.w3.org/2000/svg">
  <g style="" transform="matrix(0.770772, 0, 0, 0.770772, 0.000501, 0.000099)">
    <g>
      <g xmlns="http://www.w3.org/2000/svg">
        <g transform="matrix(12.45879, 0, 0, 12.45879, 174.048523, 44.30637)">
          <path d="M12 11.55C9.64 9.35 6.48 8 3 8v11c3.48 0 6.64 1.35 9 3.55 2.36-2.19 5.52-3.55 9-3.55V8c-3.48 0-6.64 1.35-9 3.55zM12 8c1.66 0 3-1.34 3-3s-1.34-3-3-3-3 1.34-3 3 1.34 3 3 3z"/>
        </g>
        <path style="fill:#010002;" d="M528.712,204.382c0,112.836-204.353,444.318-204.353,444.318     S119.987,317.218,119.987,204.382C119.987,91.517,211.495,0,324.36,0C437.205-0.01,528.712,91.517,528.712,204.382z      M482.48,204.392c0-87.199-70.951-158.159-158.12-158.159c-87.199,0-158.13,70.951-158.13,158.159     c0,87.16,70.931,158.091,158.13,158.091C411.539,362.493,482.48,291.551,482.48,204.392z"/>
      </g>
    </g>
  </g>
</svg>